<svg xmlns="http://www.w3.org/2000/svg" width="192" height="192" viewBox="0 0 192 192">
  <rect width="192" height="192" rx="32" fill="#0d1117"/>
  <rect x="16" y="16" width="160" height="160" rx="24" fill="#161b22"/>
  <path d="M96 40c-30.928 0-56 25.072-56 56s25.072 56 56 56 56-25.072 56-56-25.072-56-56-56zm0 8c26.51 0 48 21.49 48 48s-21.49 48-48 48-48-21.49-48-48 21.49-48 48-48z" fill="#58a6ff"/>
  <path d="M96 60c-19.882 0-36 16.118-36 36s16.118 36 36 36 36-16.118 36-36-16.118-36-36-36zm-8 52l-12-12 5.656-5.656L88 100.688l18.344-18.344L112 88l-24 24z" fill="#58a6ff"/>
  <text x="96" y="158" text-anchor="middle" font-family="system-ui" font-size="18" font-weight="700" fill="#8b949e">MOBILE</text>
</svg>
